<svg xmlns="http://www.w3.org/2000/svg" viewBox="0 0 600 413"><defs><style>.cls-1{fill:#ceecd6;}.cls-2{fill:#fff;}.cls-3{fill:#07393e;}</style></defs><g id="Calque_5" data-name="Calque 5"><rect class="cls-1" x="-71" y="-43.5" width="742" height="500"/><path class="cls-2" d="M299.16,62.63c7.26-.66,15.94-.15,24.6.73a132.74,132.74,0,0,1,25.6,5.57,227.15,227.15,0,0,1,33.44,13A56.14,56.14,0,0,1,388.37,85c5.49,3.49,6.89,8.32,3.85,14.1-2.18,4.14-4.82,8-7.15,12.07-4.67,8.13-9.15,16.38-11.57,25.49-1.87,7.06-3.63,14.14-7.23,20.56a130.2,130.2,0,0,1-6.83,11.2c-6.13,8.72-10.5,18.32-14.59,28.09s-8.17,19.76-12.51,29.53c-4.21,9.49-8.7,18.86-13.19,28.22a26,26,0,0,1-7.21,9.52c-3.39,2.64-7,2.62-10.35-.06-4.37-3.45-7-8.19-9.52-13-8.45-16-15.36-32.77-22.1-49.58-4.27-10.63-9.81-20.61-15.65-30.44-8.24-13.9-17.12-27.46-23.91-42.16-2.95-6.38-5.19-13.1-7.73-19.66-2.16-5.58-4.58-11-8.75-15.44-1.51-1.61-1.58-2.3.26-3.57,4.89-3.38,9.8-6.78,15-9.67a153.9,153.9,0,0,1,30-12.71,96.46,96.46,0,0,1,24.73-4.13C288.49,63.19,293.1,62.93,299.16,62.63Zm-22.8,93.67a19.55,19.55,0,0,0,19.74-19.8,19.72,19.72,0,1,0-19.74,19.8Zm87.53-46.9a17.91,17.91,0,1,0-18.29,17.77A17.87,17.87,0,0,0,363.89,109.4Zm-57.72,70.5a14.83,14.83,0,0,0-15,14.83c-.11,7.94,6.76,15.09,14.77,15a14.93,14.93,0,1,0,.24-29.85ZM346,164.18a7.11,7.11,0,1,0-7,7.08A7.08,7.08,0,0,0,346,164.18ZM273.56,91.52a7.17,7.17,0,0,0-7-7.16,7.14,7.14,0,1,0,7,7.16Z"/><path class="cls-2" d="M100.72,154.32c1.39,1.12,2.85,2.17,4.16,3.38,8.59,7.9,17.1,15.89,25.73,23.75,6,5.48,12.16,10.83,18.32,16.16,3,2.64,5.79,2.06,7.71-1.45a3.94,3.94,0,0,0-.84-5.28c-4.22-4-8.55-7.94-12.73-12Q126.78,163,110.61,147.12c-.62-.61-1.13-1.32-1.7-2l.37-.4c.61.43,1.25.82,1.82,1.29,9.24,7.71,18.52,15.38,27.7,23.16,6.36,5.38,12.56,10.94,18.88,16.36a13.23,13.23,0,0,0,3.55,2.14,3.6,3.6,0,0,0,4.28-1.19c1.07-1.26,1.67-2.77.78-4.37a13.82,13.82,0,0,0-2.33-3.21c-12.09-11.55-24.24-23-36.33-34.57-2.81-2.68-5.46-5.53-8.18-8.32a15,15,0,0,1-1-1.26l.35-.43c1,.75,2.08,1.44,3,2.25q19.6,16.49,39.18,33c2.55,2.16,5,4.39,7.59,6.55a5,5,0,0,0,8.19-2.74c.45-1.85-.38-3.17-1.64-4.36-3.84-3.62-7.61-7.34-11.55-10.86-10.7-9.56-21.48-19-32.19-28.55-1.57-1.39-3-2.94-4.48-4.42l.34-.48a9.42,9.42,0,0,1,1.41.74c8.8,6.51,17.63,13,26.35,19.57,9.73,7.38,19.45,14.79,29,22.41,7.42,5.92,13.86,12.77,17.9,21.55a30.9,30.9,0,0,1,2.65,19.34,2.9,2.9,0,0,0,1,3.05c18.56,16.45,37,33.09,55.67,49.35,14.36,12.47,29.15,24.46,43.71,36.7,1.31,1.1,2.11,1,3.33-.15,5.86-5.66,11.83-11.21,17.7-16.84.91-.87,1.6-1.06,2.67-.32,4.39,3,8.47,6.33,9.67,11.83,1.15,5.27.34,10.08-4,13.89-2.57,2.23-4.87,4.76-7.33,7.11-1.06,1-1,1.73.14,2.65,11.05,9.06,22.13,18.07,33.06,27.26,7.16,6,14.14,12.27,21.07,18.56,3.25,2.95,5.82,6.49,5.91,11.12a11.76,11.76,0,0,1-1,5.64c-3.17,5.91-8.24,10.93-14.82,10.22a16.15,16.15,0,0,1-9.05-4c-6-5.28-12-10.6-17.81-16.18-11.39-11-22.59-22.27-33.88-33.42-1.77-1.75-1.87-1.72-3.55.12-11.84,13-23.61,26-35.59,38.86-3.8,4.07-8.19,7.59-12.32,11.36-4.37,4-9.29,4.05-14.44,1.92-4.59-1.89-8.3-4.78-10.13-9.62a10.37,10.37,0,0,1,1.95-11.08c3.57-4.05,7.48-7.81,11.38-11.56q16.76-16.11,33.61-32.12c2.42-2.31,4.79-4.67,7.27-6.91,1.08-1,1.08-1.62,0-2.65C276.58,301.22,264.5,289,252,277.28c-16.66-15.74-33.61-31.16-50.44-46.71-2.41-2.23-4.79-4.49-7.32-6.59a3.58,3.58,0,0,0-2.73-.78c-9.48,2.6-18.29.83-26.73-3.75a72.48,72.48,0,0,1-18-14.17q-18.75-19.78-37.3-39.76c-2.82-3-5.5-6.17-8.23-9.28a16.31,16.31,0,0,1-1-1.43Z"/><path class="cls-2" d="M346.88,299.17a56.28,56.28,0,0,0-.05-6.76c-.82-6.79-4.62-11.88-9.69-16.16A14.36,14.36,0,0,0,335,274.6c-1.46-.82-1.11-1.51-.09-2.46q15.39-14.5,30.74-29.06l51.69-48.84L475,139.78q11.53-10.89,23.1-21.75c.37-.35.8-.63,1.66-1.3-.62,2.71-1.06,4.88-1.62,7-6.78,26.37-17.39,51-33.27,73.25-10,14-21.42,26.74-32.9,39.47-19.51,21.63-40,42.3-60.61,62.88a45.33,45.33,0,0,1-3.71,3.5,2.31,2.31,0,0,1-2,.37,28.69,28.69,0,0,0-17.69-3.86A3.42,3.42,0,0,1,346.88,299.17Z"/><path class="cls-2" d="M294.9,24.5c16.72.7,30.46,1.17,44,3.77a205.26,205.26,0,0,1,44.23,14c8.1,3.58,16.1,7.43,24,11.43A37.74,37.74,0,0,1,419,63.72a6,6,0,0,1,1.1,4.2,23.09,23.09,0,0,1-9.49,15.61,7,7,0,0,1-7.88.56c-9.78-5-19.59-10-29.38-15-11-5.62-22.5-9.67-34.89-11.09-6.44-.73-12.81-2.13-19.24-3.1a115.59,115.59,0,0,0-28.37-.38c-6.29.59-12.58,1.16-18.87,1.8a98.17,98.17,0,0,0-36.24,11C225.41,72.74,215,78.05,204.59,83.51a5.7,5.7,0,0,1-6.64-.43c-5.68-4.31-9.59-9.81-10.8-16.94a8.37,8.37,0,0,1,3.59-8.59,142.42,142.42,0,0,1,47.79-23.12,311.73,311.73,0,0,1,35.59-7.75C282,25.52,289.93,25,294.9,24.5Z"/><path class="cls-3" d="M73.84,238.49H67c-8.77,0-13.11-7-13.11-14V188.66c0-6.86,4.34-13.89,13.11-13.89h6.86c8.86,0,13,7,13,13.89v8.07a1,1,0,0,1-1.12,1.13l-8.6.18a.46.46,0,0,1-.52-.53V197a40.37,40.37,0,0,0-.43-6.6c-.44-2.6-1.22-4.51-2.35-5.12h-.17a7.15,7.15,0,0,0-3.3-.52c-4.6,0-6.17,1.91-6.17,6.25v31.26c0,4.25,1.57,6.25,6.17,6.25a7.15,7.15,0,0,0,3.3-.52h.17c1.13-.61,2-2.35,2.43-5a52,52,0,0,0,.52-6.6v-.52a.46.46,0,0,1,.52-.52h8.43a1,1,0,0,1,1.12,1.13v8C86.86,231.46,82.7,238.49,73.84,238.49Z"/><path class="cls-3" d="M102.92,224.52V188.66c0-6.86,4.34-13.89,13.11-13.89h6.86c8.86,0,13,7,13,13.89v35.86c0,6.94-4.17,14-13,14H116C107.26,238.49,102.92,231.46,102.92,224.52Zm10.34-2.26c0,4.25,1.56,6.25,6.16,6.25,5.47,0,6.25-1,6.25-6.25V191c0-5.21-.78-6.25-6.25-6.25-4.6,0-6.16,1.91-6.16,6.25Z"/><path class="cls-3" d="M159.88,174.77a1.14,1.14,0,0,1,1,.69l11,29.78,11.12-29.78a1.13,1.13,0,0,1,1-.69h7.81A1,1,0,0,1,193,175.9v61.47a1,1,0,0,1-1.13,1.12h-8.07a1,1,0,0,1-1.13-1.12l-.09-32.65-5.9,15.8a1.12,1.12,0,0,1-1,.7H168.3a1.11,1.11,0,0,1-1-.7l-5.91-15.8v32.65a1,1,0,0,1-1.13,1.12H152a1,1,0,0,1-1.13-1.12V175.9a1,1,0,0,1,1.13-1.13Z"/><path class="cls-3" d="M220.13,237.37a1,1,0,0,1-1.13,1.12h-8.25a1,1,0,0,1-1.13-1.12V175.9a1.05,1.05,0,0,1,1.13-1.13H219a1.05,1.05,0,0,1,1.13,1.13Z"/><path class="cls-3" d="M261.8,211.75l-.09-35.85a1.05,1.05,0,0,1,1.13-1.13h8.08a1.05,1.05,0,0,1,1.13,1.13v61.47a1,1,0,0,1-1.13,1.12h-7.73a1,1,0,0,1-1-.69l-15.28-36.29.17,35.86a1,1,0,0,1-1.13,1.12h-8.25a1,1,0,0,1-1.13-1.12l-.08-61.47a1,1,0,0,1,1.13-1.13h7.9a1,1,0,0,1,1,.69Z"/><path class="cls-3" d="M322.49,224.52c0,6.94-4.17,14-13,14H302.6c-8.77,0-13.11-7.55-13.11-14.32V188.66c0-6.86,4.34-13.89,13.11-13.89h6.86c8.86,0,13,7,13,13.89v8.07a1.05,1.05,0,0,1-1.13,1.13h-8.6a.46.46,0,0,1-.52-.52v-.52a35.54,35.54,0,0,0-.43-6.25c-.35-2.52-1-4.43-2.17-5.12a6.37,6.37,0,0,0-3.65-.7c-4.6,0-6.16,1.91-6.16,6.25v31.26c0,4.25,1.56,6.25,6.16,6.25,5.47,0,6.25-1,6.25-6.25v-9.21l-7,.09a1,1,0,0,1-1.13-1.13V204.2a1,1,0,0,1,1.13-1.13h16.15a1.05,1.05,0,0,1,1.13,1.13Z"/><path class="cls-3" d="M382.13,228.51h.69c3.3,0,4.43-.43,4.95-1a4.35,4.35,0,0,0,.61-1.65c.09-1,.09-2,.09-3.3a30.15,30.15,0,0,0-.09-4.86v-.18a5.29,5.29,0,0,0-.35-1.39l-.34-.78L369.63,202.2l-.35-.26c-.09-.08-.18-.17-.18-.26l-.43-.52c-1.48-1.91-3-4.6-3-7.29V187.1a12.85,12.85,0,0,1,13.11-12.68h5.65a14,14,0,0,1,14.32,14v8a1,1,0,0,1-1.13,1.13H389a.46.46,0,0,1-.52-.52v-.43a36.66,36.66,0,0,0-.44-6.43c-.34-2.51-1.13-4.42-2.26-5.12a7.06,7.06,0,0,0-3.55-.61c-5.65,0-6.34.35-6.34,5.13a24.93,24.93,0,0,0,.08,3.56v.17a4.66,4.66,0,0,0,.35,1.22l.44.78,17.88,13,.18.17.34.35.09.09.43.61c1.48,1.91,3,4.51,3,7.29v9a12.85,12.85,0,0,1-13.11,12.76H380a14.17,14.17,0,0,1-14.33-14.06v-8a1.05,1.05,0,0,1,1.13-1.13h8a1.05,1.05,0,0,1,1.13,1.13v5.73C375.88,227.55,376.66,228.42,382.13,228.51Z"/><path class="cls-3" d="M415,224.52V188.66c0-6.86,4.34-13.89,13.11-13.89H435c8.86,0,13,7,13,13.89v35.86c0,6.94-4.16,14-13,14h-6.86C419.37,238.49,415,231.46,415,224.52Zm10.33-2.26c0,4.25,1.57,6.25,6.17,6.25,5.47,0,6.25-1,6.25-6.25V191c0-5.21-.78-6.25-6.25-6.25-4.6,0-6.17,1.91-6.17,6.25Z"/><path class="cls-3" d="M463.22,224.52V188.66c0-6.86,4.34-13.89,13.1-13.89h6.86c8.86,0,13,7,13,13.89v35.86c0,6.94-4.17,14-13,14h-6.86C467.56,238.49,463.22,231.46,463.22,224.52Zm10.33-2.26c0,4.25,1.56,6.25,6.16,6.25,5.47,0,6.25-1,6.25-6.25V191c0-5.21-.78-6.25-6.25-6.25-4.6,0-6.16,1.91-6.16,6.25Z"/><path class="cls-3" d="M535.88,211.75l-.08-35.85a1,1,0,0,1,1.13-1.13H545a1.05,1.05,0,0,1,1.13,1.13v61.47a1,1,0,0,1-1.13,1.12h-7.73a1,1,0,0,1-1-.69L521,201.51l.17,35.86a1,1,0,0,1-1.13,1.12h-8.24a1,1,0,0,1-1.13-1.12l-.09-61.47a1.05,1.05,0,0,1,1.13-1.13h7.9a1,1,0,0,1,1,.69Z"/></g></svg>