<svg xmlns="http://www.w3.org/2000/svg" viewBox="0 0 249.57 227.41"><defs><style>.cls-1{fill:#f6d74f;}</style></defs><g id="Calque_2" data-name="Calque 2"><g id="Calque_4" data-name="Calque 4"><path class="cls-1" d="M124.26,23.82a83.55,83.55,0,0,1,15.37.46,82.66,82.66,0,0,1,16,3.48,140.8,140.8,0,0,1,20.89,8.1A35.78,35.78,0,0,1,180,37.79c3.43,2.19,4.31,5.21,2.41,8.82-1.36,2.58-3,5-4.47,7.54-2.92,5.08-5.72,10.23-7.23,15.92-1.16,4.41-2.27,8.83-4.52,12.84a77.72,77.72,0,0,1-4.26,7,91.45,91.45,0,0,0-9.12,17.56c-2.57,6.16-5.1,12.34-7.81,18.44-2.64,5.93-5.44,11.78-8.24,17.63a16.24,16.24,0,0,1-4.51,6,4.8,4.8,0,0,1-6.46,0c-2.73-2.15-4.37-5.12-6-8.11a331,331,0,0,1-13.81-31,140.45,140.45,0,0,0-9.77-19C91.1,82.66,85.55,74.19,81.31,65c-1.84-4-3.24-8.19-4.83-12.29-1.35-3.48-2.86-6.87-5.47-9.65-.94-1-1-1.43.17-2.23,3-2.11,6.12-4.23,9.35-6a96.83,96.83,0,0,1,18.73-7.94,60,60,0,0,1,15.45-2.57C117.59,24.17,120.48,24,124.26,23.82ZM110,82.34A12.21,12.21,0,0,0,122.35,70,12.32,12.32,0,1,0,110,82.34ZM164.7,53a11.19,11.19,0,1,0-11.43,11.11A11.16,11.16,0,0,0,164.7,53ZM128.64,97.09a9.27,9.27,0,0,0-9.38,9.26,9.34,9.34,0,1,0,18.68,0A9.29,9.29,0,0,0,128.64,97.09Zm24.91-9.82a4.44,4.44,0,1,0-4.4,4.42A4.43,4.43,0,0,0,153.55,87.27Zm-45.28-45.4a4.5,4.5,0,0,0-4.37-4.48,4.46,4.46,0,1,0,4.37,4.48Z"/><path class="cls-1" d="M.29,81.1c.86.71,1.77,1.36,2.59,2.11C8.25,88.15,13.56,93.15,19,98.05c3.77,3.43,7.61,6.77,11.45,10.1,1.9,1.65,3.62,1.28,4.82-.91a2.45,2.45,0,0,0-.53-3.29c-2.63-2.52-5.34-5-7.95-7.51Q16.57,86.56,6.46,76.6c-.38-.37-.71-.82-1.06-1.23l.23-.25c.38.27.78.51,1.14.81,5.77,4.81,11.57,9.6,17.31,14.46,4,3.36,7.84,6.84,11.79,10.22A8.12,8.12,0,0,0,38.09,102a2.24,2.24,0,0,0,2.67-.74,2.29,2.29,0,0,0,.49-2.73,8.55,8.55,0,0,0-1.46-2C32.24,89.26,24.65,82.09,17.1,74.88c-1.76-1.68-3.42-3.46-5.11-5.2a7.9,7.9,0,0,1-.61-.79l.22-.27c.63.47,1.3.9,1.9,1.41Q25.74,80.34,38,90.65c1.6,1.35,3.16,2.74,4.75,4.09A3.15,3.15,0,0,0,47.83,93a2.67,2.67,0,0,0-1-2.72c-2.4-2.27-4.76-4.59-7.22-6.79-6.68-6-13.41-11.88-20.11-17.83-1-.87-1.87-1.84-2.8-2.77l.22-.3a6.72,6.72,0,0,1,.88.47c5.49,4.06,11,8.1,16.46,12.22,6.08,4.62,12.15,9.25,18.11,14C57,93,61,97.29,63.54,102.77a19.34,19.34,0,0,1,1.66,12.09,1.8,1.8,0,0,0,.64,1.9c11.6,10.28,23.09,20.68,34.79,30.84,9,7.79,18.21,15.28,27.3,22.93.82.68,1.32.64,2.08-.1,3.66-3.53,7.39-7,11.06-10.52a1.13,1.13,0,0,1,1.67-.2c2.74,1.88,5.29,4,6,7.39s.21,6.3-2.52,8.68c-1.6,1.39-3,3-4.58,4.44-.66.63-.61,1.08.09,1.66,6.9,5.66,13.83,11.28,20.66,17,4.47,3.76,8.83,7.66,13.16,11.59,2,1.84,3.64,4.06,3.69,6.95a7.42,7.42,0,0,1-.64,3.52c-2,3.69-5.14,6.83-9.25,6.39a10.14,10.14,0,0,1-5.66-2.48c-3.77-3.3-7.53-6.62-11.12-10.11-7.12-6.9-14.12-13.91-21.17-20.88-1.11-1.09-1.17-1.08-2.22.08-7.4,8.1-14.75,16.25-22.24,24.27-2.37,2.55-5.11,4.75-7.69,7.1-2.73,2.48-5.81,2.53-9,1.2a10.53,10.53,0,0,1-6.33-6,6.49,6.49,0,0,1,1.22-6.93c2.23-2.52,4.67-4.87,7.1-7.21q10.47-10.08,21-20.07c1.51-1.45,3-2.92,4.54-4.32.68-.61.68-1,0-1.65-7.68-7.47-15.22-15.08-23-22.43-10.41-9.83-21-19.47-31.51-29.18-1.51-1.39-3-2.8-4.57-4.11a2.2,2.2,0,0,0-1.71-.49c-5.92,1.62-11.43.51-16.7-2.35a44.86,44.86,0,0,1-11.23-8.85Q17.38,100.58,5.79,88.1C4,86.21,2.36,84.24.65,82.31c-.24-.28-.43-.6-.65-.9Z"/><path class="cls-1" d="M154.07,171.6a34.83,34.83,0,0,0,0-4.22c-.51-4.25-2.89-7.42-6-10.1a8.85,8.85,0,0,0-1.36-1c-.92-.52-.7-.94-.06-1.54q9.62-9.06,19.21-18.15L198.06,106l36-34,14.42-13.59c.24-.22.51-.39,1-.81-.39,1.69-.67,3.05-1,4.39-4.23,16.48-10.86,31.88-20.78,45.77-6.24,8.72-13.38,16.7-20.56,24.66-12.19,13.51-25,26.42-37.87,39.28a28.08,28.08,0,0,1-2.31,2.19,1.45,1.45,0,0,1-1.27.23,17.9,17.9,0,0,0-11-2.42A2.12,2.12,0,0,1,154.07,171.6Z"/><path class="cls-1" d="M121.59,0c10.45.44,19,.73,27.5,2.35a128.46,128.46,0,0,1,27.63,8.72c5.07,2.24,10.06,4.64,15,7.14a23.5,23.5,0,0,1,7.42,6.29,3.72,3.72,0,0,1,.69,2.63,14.4,14.4,0,0,1-5.93,9.75,4.38,4.38,0,0,1-4.92.35c-6.11-3.15-12.24-6.25-18.36-9.38a63.72,63.72,0,0,0-21.79-6.93c-4-.46-8-1.33-12-1.93a72.05,72.05,0,0,0-17.73-.24c-3.93.37-7.86.72-11.79,1.12a61.59,61.59,0,0,0-22.64,6.85c-6.47,3.42-13,6.73-19.49,10.15A3.56,3.56,0,0,1,61,36.6,16.53,16.53,0,0,1,54.28,26a5.2,5.2,0,0,1,2.25-5.36A88.62,88.62,0,0,1,86.38,6.21a194.88,194.88,0,0,1,22.23-4.85C113.52.64,118.49.32,121.59,0Z"/></g></g></svg>